# xmcd
#
# Track frame offsets:
#	150
#	11635
#	25732
#	64315
#	79220
#	110355
#	136722
#	160155
#	181012
#	199237
#	229477
#	248715
#	263715
#	288582
#	318085
#
# Disc length: 4456
#
# Revision: 4
# Processed by: cddbd v1.5.1PL0 Copyright (c) Steve Scherf et al.
# Submitted via: audiograbber 1.82.02
# Normalized: r3:DSETVAR1
#
DISCID=c711660f
DTITLE=Various Artist - Mean Old World-The Blues (1940-1994) [Volume 4]
DYEAR=1996
DGENRE=Blues
TTITLE0=Albert King - Crosscut Saw
TTITLE1=Magic Sam - Every Night And Every Day
TTITLE2=B.B. King - Why I Sing The Blues
TTITLE3=Little Johnnie Taylor - Everybody Knows About My Good Thing (Part 1)
TTITLE4=Little Milton - Little Bluebird
TTITLE5=Jimmy Johnson - Your Turn To Cry
TTITLE6=Z.Z. Hill - Down Home Blues
TTITLE7=Denise LaSalle - Your Husband Is Cheatin' On Us
TTITLE8=Roosevelt "Bubba" Barnes And The Playboys - How Long This Must Go On
TTITLE9=Junior Kimbrough - Jr. Blues
TTITLE10=Taj Mahal - Big Legged Mamas Are Back In Style
TTITLE11=Tutu Jones - Stubborn Woman
TTITLE12=Buddy Guy - Cities Need Help
TTITLE13=Billy Branch - You
TTITLE14=Cory Harris - Between Midnight And Day
EXTD=
EXTT0=
EXTT1=
EXTT2=
EXTT3=
EXTT4=
EXTT5=
EXTT6=
EXTT7=
EXTT8=
EXTT9=
EXTT10=
EXTT11=
EXTT12=
EXTT13=
EXTT14=
PLAYORDER=
